<?xml version="1.0" standalone="no"?><!DOCTYPE svg PUBLIC "-//W3C//DTD SVG 1.1//EN" "http://www.w3.org/Graphics/SVG/1.1/DTD/svg11.dtd"><svg t="1608026980624" class="icon" viewBox="0 0 1024 1024" version="1.1" xmlns="http://www.w3.org/2000/svg" p-id="3295" width="16" height="16" xmlns:xlink="http://www.w3.org/1999/xlink"><defs><style type="text/css"></style></defs><path d="M501.76 314.027c-10.24 27.306-10.24 27.306-10.24 34.133l-64.853 180.907h153.6L515.413 348.16c-3.413-6.827-6.826-13.653-13.653-34.133z" p-id="3296" fill="#595959"></path><path d="M512 0C228.693 0 0 228.693 0 512s228.693 512 512 512 512-228.693 512-512S795.307 0 512 0z m133.12 733.867c-3.413-20.48-10.24-47.787-17.067-64.854l-23.893-68.266H406.187l-23.894 68.266c-10.24 30.72-13.653 37.547-17.066 64.854h-102.4c10.24-17.067 20.48-44.374 34.133-71.68L433.493 307.2c10.24-30.72 17.067-47.787 20.48-61.44h105.814c3.413 13.653 6.826 23.893 20.48 61.44L716.8 662.187c17.067 40.96 23.893 58.026 30.72 71.68h-102.4z" p-id="3297" fill="#595959"></path></svg>