<?xml version="1.0" standalone="no"?><!DOCTYPE svg PUBLIC "-//W3C//DTD SVG 1.1//EN" "http://www.w3.org/Graphics/SVG/1.1/DTD/svg11.dtd"><svg t="1608026909834" class="icon" viewBox="0 0 1024 1024" version="1.1" xmlns="http://www.w3.org/2000/svg" p-id="1745" width="16" height="16" xmlns:xlink="http://www.w3.org/1999/xlink"><defs><style type="text/css"></style></defs><path d="M454.656 512H166.912c-32.256 0-57.856 25.6-57.856 57.344v57.344h345.6V742.4h115.2v-115.2h345.6v-57.344c0-32.256-26.112-57.344-57.856-57.344h-287.744V396.8H454.656V512zM338.944 108.032C338.944 76.8 365.056 51.2 396.288 51.2h231.424c31.744 0 56.832 26.112 56.832 56.832v231.424c0 31.744-26.112 56.832-56.832 56.832H396.288c-31.744 0-56.832-26.112-56.832-56.832V108.032z m-230.4 519.168h115.2V742.4H108.544v-115.2z m691.2 0h115.2V742.4h-115.2v-115.2z m-402.944 173.568c0-32.256 25.6-58.368 58.368-58.368h114.176c32.256 0 58.368 25.6 58.368 58.368v114.176c0 32.256-25.6 58.368-58.368 58.368H455.168c-32.256 0-58.368-25.6-58.368-58.368v-114.176z m-345.6 0c0-32.256 25.6-58.368 58.368-58.368h114.176c32.256 0 58.368 25.6 58.368 58.368v114.176c0 32.256-25.6 58.368-58.368 58.368H109.568c-32.256 0-58.368-25.6-58.368-58.368v-114.176z m691.2 0c0-32.256 25.6-58.368 58.368-58.368h114.176c32.256 0 58.368 25.6 58.368 58.368v114.176c0 32.256-25.6 58.368-58.368 58.368h-114.176c-32.256 0-58.368-25.6-58.368-58.368v-114.176z" fill="#499C54" p-id="1746"></path></svg>