<?xml version="1.0" standalone="no"?><!DOCTYPE svg PUBLIC "-//W3C//DTD SVG 1.1//EN" "http://www.w3.org/Graphics/SVG/1.1/DTD/svg11.dtd"><svg t="1617883722024" class="icon" viewBox="0 0 1025 1024" version="1.1" xmlns="http://www.w3.org/2000/svg" p-id="2967" width="15.0146484375" height="15" xmlns:xlink="http://www.w3.org/1999/xlink"><defs><style type="text/css"></style></defs><path d="M388.9152 359.424c9.8304 9.8304 9.8304 19.6608 0 29.4912C382.3616 392.192 377.4464 393.8304 374.1696 393.8304c-3.2768 0-8.192-1.6384-14.7456-4.9152L39.424 66.4576 39.424 256c0 13.1072-6.5536 19.6608-19.6608 19.6608S0 269.1072 0 256L0 19.6608C0 16.384 0.8192 13.9264 2.4576 12.288c0-6.5536 3.2768-9.8304 9.8304-9.8304C13.9264 0.8192 16.384 0 19.6608 0L256 0c13.1072 0 19.6608 6.5536 19.6608 19.6608S269.1072 39.424 256 39.424L66.4576 39.424 388.9152 359.424zM359.424 635.0848c9.8304-9.8304 19.6608-9.8304 29.4912 0 9.8304 9.8304 9.8304 19.6608 0 29.4912L66.4576 984.576 256 984.576c13.1072 0 19.6608 6.5536 19.6608 19.6608S269.1072 1024 256 1024L19.6608 1024C16.384 1024 13.9264 1023.1808 12.288 1021.5424c-6.5536 0-9.8304-3.2768-9.8304-9.8304C0.8192 1010.0736 0 1007.616 0 1004.3392L0 768c0-13.1072 6.5536-19.6608 19.6608-19.6608S39.424 754.8928 39.424 768l0 189.5424L359.424 635.0848zM1021.5424 12.288C1023.1808 13.9264 1024 16.384 1024 19.6608L1024 256c0 13.1072-6.5536 19.6608-19.6608 19.6608S984.576 269.1072 984.576 256L984.576 66.4576 664.576 388.9152C658.0224 392.192 653.1072 393.8304 649.8304 393.8304c-3.2768 0-8.192-1.6384-14.7456-4.9152-9.8304-9.8304-9.8304-19.6608 0-29.4912l322.4576-320L768 39.424c-13.1072 0-19.6608-6.5536-19.6608-19.6608S754.8928 0 768 0l236.3392 0C1007.616 0 1010.0736 0.8192 1011.712 2.4576 1018.2656 2.4576 1021.5424 5.7344 1021.5424 12.288zM1024 1004.3392C1024 1007.616 1023.1808 1010.0736 1021.5424 1011.712c0 6.5536-3.2768 9.8304-9.8304 9.8304C1010.0736 1023.1808 1007.616 1024 1004.3392 1024L768 1024c-13.1072 0-19.6608-6.5536-19.6608-19.6608S754.8928 984.576 768 984.576l189.5424 0L635.0848 664.576c-9.8304-9.8304-9.8304-19.6608 0-29.4912 9.8304-9.8304 19.6608-9.8304 29.4912 0l320 322.4576L984.576 768c0-13.1072 6.5536-19.6608 19.6608-19.6608S1024 754.8928 1024 768L1024 1004.3392z" p-id="2968" fill="#499C54"></path></svg>