<?xml version="1.0" standalone="no"?><!DOCTYPE svg PUBLIC "-//W3C//DTD SVG 1.1//EN" "http://www.w3.org/Graphics/SVG/1.1/DTD/svg11.dtd"><svg t="1608026613197" class="icon" viewBox="0 0 1024 1024" version="1.1" xmlns="http://www.w3.org/2000/svg" p-id="1316" width="16" height="16" xmlns:xlink="http://www.w3.org/1999/xlink"><defs><style type="text/css"></style></defs><path d="M512 1024C229.229714 1024 0 794.770286 0 512S229.229714 0 512 0 1024 229.229714 1024 512 794.770286 1024 512 1024z m35.303619-268.190476c46.616381 0 87.771429-8.874667 115.858286-19.797334V658.773333c-36.327619 12.970667-70.607238 18.432-112.396191 18.432-91.184762 0-132.973714-32.768-132.973714-165.936762 0-125.659429 43.154286-165.936762 136.387048-165.936761 41.106286 0 74.020571 6.144 103.521523 16.384v-78.506667c-29.500952-10.288762-63.097905-15.067429-108.982857-15.067429-138.48381 0-226.889143 60.757333-226.889143 243.809524 0 198.753524 89.088 243.809524 225.475048 243.809524z" p-id="1317" fill="#595959"></path></svg>