<svg t="1626594856480" class="icon" viewBox="0 0 1069 1024" version="1.1" xmlns="http://www.w3.org/2000/svg" p-id="2321" width="16" height="16"><path d="M518.649351 861.755844s316.509091-271.293506 316.509091-553.225974C832.498701 138.306494 691.532468 0 518.649351 0S202.14026 138.306494 202.14026 308.52987c0 292.571429 316.509091 553.225974 316.509091 553.225974zM345.766234 316.509091c0-95.750649 77.132468-172.883117 172.883117-172.883117S691.532468 220.758442 691.532468 316.509091s-77.132468 172.883117-172.883117 172.883117-172.883117-79.792208-172.883117-172.883117z" fill="#6E6E6E" p-id="2322"></path><path d="M768.664935 694.192208c-21.277922 26.597403-39.896104 53.194805-61.174026 74.472727 220.758442 13.298701 268.633766 58.514286 279.272727 82.451948-10.638961 26.597403-159.584416 90.431169-454.815584 90.431169-295.231169 2.65974-444.176623-63.833766-452.155844-87.771429 7.979221-21.277922 42.555844-63.833766 244.696104-79.792207-18.618182-21.277922-39.896104-47.875325-61.174026-74.472728C98.41039 718.12987 0 758.025974 0 851.116883c0 135.646753 335.127273 170.223377 534.607792 170.223377 199.480519 0 534.607792-37.236364 534.607792-170.223377 0-98.41039-122.348052-140.966234-300.550649-156.924675z" fill="#6E6E6E" p-id="2323"></path></svg>