<?xml version="1.0" standalone="no"?><!DOCTYPE svg PUBLIC "-//W3C//DTD SVG 1.1//EN" "http://www.w3.org/Graphics/SVG/1.1/DTD/svg11.dtd"><svg t="1608026939624" class="icon" viewBox="0 0 1024 1024" version="1.1" xmlns="http://www.w3.org/2000/svg" p-id="2174" width="16" height="16" xmlns:xlink="http://www.w3.org/1999/xlink"><defs><style type="text/css"></style></defs><path d="M770.638 933.875h-553.71c-44.825 0-79.102-34.277-79.102-79.102v-659.18h553.71c44.825 0 79.102 34.278 79.102 79.102v659.18zM190.56 248.328v606.445c0 15.82 10.547 26.368 26.367 26.368h500.977V274.695c0-15.82-10.547-26.367-26.368-26.367H190.56z" p-id="2175" fill="#499C54"></path><path d="M612.435 424.988H296.029c-13.184 0-26.368-10.547-26.368-26.367 0-13.183 10.547-26.367 26.368-26.367h316.406c13.183 0 26.367 10.547 26.367 26.367 0 13.184-13.184 26.367-26.367 26.367z m0 131.836H296.029c-13.184 0-26.368-10.547-26.368-26.367 0-13.184 10.547-26.367 26.368-26.367h316.406c13.183 0 26.367 10.547 26.367 26.367 0 13.184-13.184 26.367-26.367 26.367z m0 131.836H296.029c-13.184 0-26.368-10.547-26.368-26.367 0-13.184 10.547-26.367 26.368-26.367h316.406c13.183 0 26.367 10.547 26.367 26.367 0 13.184-13.184 26.367-26.367 26.367z" p-id="2176" fill="#499C54"></path><path d="M828.646 90.125H301.302c-15.82 0-26.367 10.547-26.367 26.367s10.547 26.367 26.367 26.367h527.344c15.82 0 26.367 10.547 26.367 26.368v606.445h-31.64v52.734h84.374v-659.18c0-44.824-36.914-79.101-79.101-79.101z" p-id="2177" fill="#499C54"></path><path d="M797.005 802.04a26.367 26.367 0 1 0 52.735 0 26.367 26.367 0 1 0-52.735 0z" p-id="2178" fill="#499C54"></path></svg>