<?xml version="1.0" standalone="no"?><!DOCTYPE svg PUBLIC "-//W3C//DTD SVG 1.1//EN" "http://www.w3.org/Graphics/SVG/1.1/DTD/svg11.dtd"><svg t="1608027060936" class="icon" viewBox="0 0 1170 1024" version="1.1" xmlns="http://www.w3.org/2000/svg" p-id="6333" width="18.28125" height="16" xmlns:xlink="http://www.w3.org/1999/xlink"><defs><style type="text/css"></style></defs><path d="M1072.566857 0H97.718857C43.812571 0 0 43.812571 0 97.718857v811.008c0 53.833143 43.812571 97.645714 97.718857 97.645714h974.701714c53.906286 0 97.865143-43.812571 97.865143-97.645714V97.572571C1170.285714 43.812571 1126.473143 0 1072.566857 0zM97.718857 79.286857h974.848c9.947429 0 18.285714 8.338286 18.285714 18.285714v700.123429L791.405714 368.201143a67.072 67.072 0 0 0-55.076571-28.16 66.633143 66.633143 0 0 0-54.930286 28.16L468.992 674.377143 351.817143 548.571429a67.584 67.584 0 0 0-54.125714-20.918858 66.56 66.56 0 0 0-50.468572 28.013715l-167.862857 242.322285V97.572571c0-9.947429 8.411429-18.285714 18.285714-18.285714z" fill="#595959" p-id="6334"></path><path d="M312.027429 373.028571a78.262857 78.262857 0 1 0-0.146286-156.672A78.262857 78.262857 0 0 0 312.027429 373.028571z" fill="#595959" p-id="6335"></path></svg>