<?xml version="1.0" standalone="no"?><!DOCTYPE svg PUBLIC "-//W3C//DTD SVG 1.1//EN" "http://www.w3.org/Graphics/SVG/1.1/DTD/svg11.dtd"><svg t="1612689133553" class="icon" viewBox="0 0 1026 1024" version="1.1" xmlns="http://www.w3.org/2000/svg" p-id="2850" width="16.03125" height="16" xmlns:xlink="http://www.w3.org/1999/xlink"><defs><style type="text/css"></style></defs><path d="M190.464 764.928q0 26.624 18.944 45.056t45.568 18.432l254.976 0 0 128-319.488 0q-26.624 0-49.664-10.24t-40.448-27.648-27.648-40.448-10.24-49.664l0-640q0-26.624 10.24-49.664t27.648-40.448 40.448-27.648 49.664-10.24l704.512 0q26.624 0 49.664 10.24t40.448 27.648 27.648 40.448 10.24 49.664l0 253.952-128 3.072 0-64.512q0-26.624-18.944-45.568t-45.568-18.944l-575.488 0q-26.624 0-45.568 18.944t-18.944 45.568l0 384zM799.744 507.904q46.08 0 87.04 17.408t71.68 48.128 48.64 71.68 17.92 88.064-17.92 88.064-48.64 71.68-71.68 48.128-87.04 17.408q-47.104 0-88.064-17.408t-71.68-48.128-48.64-71.68-17.92-88.064 17.92-88.064 48.64-71.68 71.68-48.128 88.064-17.408zM958.464 764.928l0-64.512-128 0 0-128-63.488 0 0 128-128 0 0 64.512 128 0 0 128 63.488 0 0-128 128 0z" p-id="2851" fill="#499C54"></path></svg>