<?xml version="1.0" standalone="no"?><!DOCTYPE svg PUBLIC "-//W3C//DTD SVG 1.1//EN" "http://www.w3.org/Graphics/SVG/1.1/DTD/svg11.dtd"><svg t="1609727871598" class="icon" viewBox="0 0 1024 1024" version="1.1" xmlns="http://www.w3.org/2000/svg" p-id="11276" width="16" height="16" xmlns:xlink="http://www.w3.org/1999/xlink"><defs><style type="text/css"></style></defs><path d="M651.324 798.725c0-10.753-7.756-19.458-17.308-19.458H391.775c-9.55 0-17.303 8.705-17.303 19.458v77.824H201.436v58.363h622.906v-58.363H651.324v-77.824zM902.027 89.647H123.769c-32.243 0-58.366 26.104-58.366 58.348V692.77c0 32.221 26.123 58.368 58.366 58.368h778.259c32.243 0 58.368-26.146 58.368-58.368V147.995c0-32.245-26.125-58.348-58.369-58.348z m0 583.63c0 10.734-8.723 19.452-19.457 19.452H143.227c-10.753 0-19.453-8.718-19.453-19.452V167.433c0-10.757 8.7-19.457 19.453-19.457h739.344c10.733 0 19.457 8.7 19.457 19.457v505.844h-0.001z m-199.315-37.223h105.26V329.596h-105.26v306.458z m-168.417 0h105.26V235.301h-105.26v400.753z m-315.782 0h105.26V518.187h-105.26v117.867z m147.364 0h105.261V423.87H365.877v212.185z m0 0" p-id="11277" fill="#499C54"></path></svg>