<svg t="1652192911814" class="icon" viewBox="0 0 1024 1024" version="1.1" xmlns="http://www.w3.org/2000/svg" p-id="2748"
     width="16" height="16">
    <path
        d="M358.681 586.386s-90.968 49.4-94.488 126.827c-3.519 77.428-77.427 133.74-102.063 140.778s360.157 22.971 332.002-142.444l-135.45-125.16zM527.78 638.946c14.016 13.601 17.565 32.675 7.929 42.606-9.635 9.93-28.81 6.954-42.823-6.647l-92.767-88.518c-14.015-13.6-17.565-32.675-7.929-42.605 9.636-9.93 28.81-6.955 42.824 6.646l92.766 88.518zM849.514 173.863c-25.144-17.055-47.741-1.763-57.477 3.805-29.097 19.485-237.243 221.77-327.69 315.194-11.105 14.8-18.59 26.294 34.663 79.546 44.95 44.95 65.896 42.012 88.66 22.603 37.906-37.906 199.299-262.926 258.92-348.713 9.792-14.092 29.851-54.17 2.924-72.435z"
        fill="#499C54" p-id="2749"></path>
</svg>