<?xml version="1.0" standalone="no"?><!DOCTYPE svg PUBLIC "-//W3C//DTD SVG 1.1//EN" "http://www.w3.org/Graphics/SVG/1.1/DTD/svg11.dtd"><svg t="1610598164148" class="icon" viewBox="0 0 1024 1024" version="1.1" xmlns="http://www.w3.org/2000/svg" p-id="4771" width="16" height="16" xmlns:xlink="http://www.w3.org/1999/xlink"><defs><style type="text/css"></style></defs><path d="M209.92 404.48c-5.12 0-15.36 0-20.48-5.12C168.96 373.76 153.6 343.04 153.6 307.2c0-71.68 56.32-128 128-128S409.6 235.52 409.6 307.2c0 15.36-10.24 25.6-25.6 25.6S358.4 322.56 358.4 307.2c0-40.96-35.84-76.8-76.8-76.8S204.8 266.24 204.8 307.2c0 20.48 10.24 40.96 20.48 56.32 10.24 10.24 10.24 25.6 0 35.84 0 5.12-10.24 5.12-15.36 5.12z" fill="#595959" p-id="4772"></path><path d="M194.56 573.44h-10.24C76.8 532.48 0 424.96 0 307.2 0 153.6 128 25.6 281.6 25.6S563.2 153.6 563.2 307.2c0 15.36-10.24 25.6-25.6 25.6S512 322.56 512 307.2c0-128-102.4-230.4-230.4-230.4S51.2 179.2 51.2 307.2c0 97.28 61.44 184.32 153.6 215.04 15.36 5.12 20.48 20.48 15.36 30.72-5.12 15.36-15.36 20.48-25.6 20.48z" fill="#595959" p-id="4773"></path><path d="M757.76 1018.88c-30.72 0-56.32-20.48-81.92-35.84l-15.36-10.24c-40.96-25.6-179.2-76.8-245.76-102.4-25.6-10.24-46.08-15.36-51.2-20.48-51.2-25.6-76.8-61.44-66.56-102.4 10.24-35.84 35.84-61.44 71.68-61.44 20.48 0 40.96 5.12 40.96 10.24l40.96 10.24c-92.16-128-199.68-276.48-204.8-281.6-10.24-15.36-15.36-40.96-10.24-56.32 5.12-25.6 15.36-46.08 30.72-56.32 15.36-10.24 30.72-15.36 46.08-15.36 40.96 0 61.44 30.72 66.56 30.72l56.32 76.8c5.12-10.24 20.48-20.48 30.72-25.6 25.6-15.36 66.56-5.12 81.92 15.36 10.24-15.36 20.48-25.6 35.84-30.72 10.24-5.12 20.48-5.12 30.72-5.12 35.84 0 56.32 25.6 66.56 30.72l5.12 5.12c5.12-5.12 10.24-10.24 15.36-20.48 30.72-25.6 71.68-25.6 102.4 5.12 20.48 20.48 76.8 102.4 87.04 117.76 0 5.12 97.28 209.92 117.76 266.24 30.72 66.56-20.48 102.4-46.08 122.88l-10.24 5.12c-5.12 5.12-20.48 15.36-40.96 30.72-56.32 46.08-107.52 81.92-128 92.16-5.12 5.12-15.36 5.12-25.6 5.12z m-384-276.48c-10.24 0-20.48 5.12-25.6 20.48-5.12 25.6 25.6 40.96 35.84 46.08 5.12 0 20.48 10.24 46.08 15.36 102.4 35.84 215.04 81.92 256 107.52l15.36 10.24c25.6 15.36 46.08 30.72 61.44 25.6 20.48-10.24 81.92-61.44 117.76-87.04 20.48-15.36 35.84-25.6 40.96-30.72l10.24-5.12c30.72-20.48 40.96-30.72 30.72-56.32-25.6-56.32-117.76-261.12-117.76-261.12-20.48-30.72-66.56-92.16-81.92-107.52-5.12-10.24-15.36-10.24-25.6-5.12s-15.36 20.48-5.12 30.72c15.36 25.6 35.84 56.32 35.84 56.32 5.12 10.24 5.12 25.6-5.12 35.84-10.24 10.24-25.6 5.12-35.84-5.12-30.72-46.08-71.68-97.28-76.8-102.4-10.24-10.24-25.6-25.6-46.08-15.36-5.12 0-10.24 5.12-10.24 15.36a547154279290208700 547154279290208700 0 0 1 25.6 143.36S532.48 455.68 512 435.2c-10.24-15.36-20.48-10.24-25.6-10.24 0 0-15.36 10.24-15.36 20.48 10.24 20.48 61.44 107.52 92.16 153.6 5.12 10.24 5.12 25.6-5.12 35.84-10.24 5.12-25.6 5.12-35.84-5.12L337.92 358.4s-20.48-20.48-40.96-5.12c-15.36 10.24-10.24 35.84-10.24 40.96 5.12 10.24 209.92 286.72 250.88 343.04 5.12 10.24 5.12 20.48 0 30.72-5.12 10.24-15.36 15.36-25.6 10.24l-112.64-30.72c-5.12-5.12-15.36-5.12-25.6-5.12z" fill="#595959" p-id="4774"></path></svg>