<?xml version="1.0" standalone="no"?><!DOCTYPE svg PUBLIC "-//W3C//DTD SVG 1.1//EN" "http://www.w3.org/Graphics/SVG/1.1/DTD/svg11.dtd"><svg t="1608027034069" class="icon" viewBox="0 0 1024 1024" version="1.1" xmlns="http://www.w3.org/2000/svg" p-id="5140" width="16" height="16" xmlns:xlink="http://www.w3.org/1999/xlink"><defs><style type="text/css"></style></defs><path d="M985.746286 333.677714a38.546286 38.546286 0 0 0-20.114286-21.138285 36.937143 36.937143 0 0 0-29.037714-0.438858 37.595429 37.595429 0 0 0-21.650286 49.152c23.113143 59.318857 31.451429 127.268571 24.137143 196.534858a412.233143 412.233143 0 0 1-156.013714 276.699428 412.16 412.16 0 0 1-306.102858 85.430857 412.233143 412.233143 0 0 1-276.772571-156.086857A412.598857 412.598857 0 0 1 114.834286 457.728a412.306286 412.306286 0 0 1 156.086857-276.699429 412.525714 412.525714 0 0 1 306.029714-85.357714 425.472 425.472 0 0 1 186.368 70.729143 39.058286 39.058286 0 0 0 28.598857 6.070857 36.937143 36.937143 0 0 0 24.429715-16.018286 39.204571 39.204571 0 0 0 6.144-28.598857 37.010286 37.010286 0 0 0-15.945143-24.356571A473.673143 473.673143 0 0 0 586.752 20.845714a486.107429 486.107429 0 0 0-362.203429 100.937143A486.473143 486.473143 0 0 0 40.009143 449.755429a490.203429 490.203429 0 0 0 100.937143 361.472 482.962286 482.962286 0 0 0 326.217143 183.515428 484.717714 484.717714 0 0 0 361.691428-101.083428 491.593143 491.593143 0 0 0 185.051429-327.899429 492.617143 492.617143 0 0 0-28.16-232.082286" fill="#595959" p-id="5141"></path><path d="M723.821714 585.874286c-5.046857 16.822857-15.067429 34.377143-28.16 49.371428a78.628571 78.628571 0 0 1-33.206857 19.163429 185.490286 185.490286 0 0 1-55.076571 7.094857H521.654857V360.594286h78.555429c35.328 0 56.100571 2.194286 67.291428 7.021714 19.894857 8.996571 37.229714 25.014857 47.616 44.105143 13.165714 19.821714 19.382857 50.249143 19.382857 95.817143 0 26.112-3.364571 51.053714-10.678857 78.262857z m-51.273143-287.158857a268.653714 268.653714 0 0 0-75.922285-5.485715H470.966857a29.257143 29.257143 0 0 0-29.257143 29.257143V701.44c0 16.164571 13.092571 29.257143 29.257143 29.257143h138.24c24.429714 0 45.714286-2.340571 65.097143-7.241143 18.651429-3.657143 37.156571-13.092571 52.882286-21.942857a168.228571 168.228571 0 0 0 40.228571-40.155429c14.336-22.528 24.137143-43.885714 29.037714-63.488 6.436571-25.746286 12.726857-56.246857 10.825143-86.820571 0-35.986286-5.485714-70.656-16.310857-103.131429a199.168 199.168 0 0 0-52.662857-76.361143 149.430857 149.430857 0 0 0-65.755429-32.914285zM330.752 730.697143a38.180571 38.180571 0 0 0 38.180571-38.180572V331.410286a38.180571 38.180571 0 0 0-76.361142 0v361.106285c0 21.138286 17.115429 38.180571 38.180571 38.180572z" fill="#595959" p-id="5142"></path></svg>