<?xml version="1.0" standalone="no"?><!DOCTYPE svg PUBLIC "-//W3C//DTD SVG 1.1//EN" "http://www.w3.org/Graphics/SVG/1.1/DTD/svg11.dtd"><svg t="1618127346973" class="icon" viewBox="0 0 1024 1024" version="1.1" xmlns="http://www.w3.org/2000/svg" p-id="2092" width="15" height="15" xmlns:xlink="http://www.w3.org/1999/xlink"><defs><style type="text/css"></style></defs><path d="M965.34016 114.78528c-14.0032-30.85312-44.82048-50.78528-78.50496-50.78528l-744.22272-0.01024a82.9184 82.9184 0 0 0-76.4928 50.70336c-13.79328 32.0768-7.40352 68.10112 16.5888 92.11904l2.64192 3.16928 274.79552 220.2368a23.76192 23.76192 0 0 1 9.26208 18.38592v377.83552a84.13184 84.13184 0 0 0 44.63104 75.01824l118.96832 66.27328c13.12256 6.85056 26.64448 10.17856 41.32352 10.17856h0.06656c23.30624 0 45.00992-8.9856 61.11744-25.30304 15.85664-16.06144 24.4224-37.48352 24.12544-60.39552V450.95424a24.36608 24.36608 0 0 1 8.5248-18.304l278.7072-222.83264 3.29728-3.22048a83.57376 83.57376 0 0 0 15.17056-91.81184z m-60.0576 48.20992l-0.38912 0.52736-275.25632 221.55264c-20.10112 16.20992-31.62112 40.4736-31.62112 66.57024v440.56064c0.0256 8.29952-4.352 16.1536-11.84256 20.72576a26.66496 26.66496 0 0 1-11.77088 2.75456 23.92064 23.92064 0 0 1-11.52-2.85696l-118.89664-65.05472c-7.30112-3.60448-11.84256-11.56608-11.84256-20.78208V449.2032c0-25.81504-11.74016-50.048-32.19968-66.48832L134.13376 170.53184l-9.32352-7.6288c-5.15584-7.28064-5.74464-16.68608-1.68448-24.2176 3.72224-8.26368 11.52-13.19424 20.85888-13.19424H886.784a23.26016 23.26016 0 0 1 20.76672 13.04576 23.5008 23.5008 0 0 1-2.26816 24.45824z" p-id="2093" fill="#499C54"></path><path d="M748.20608 805.69344c-16.34816-0.4352-29.50656-14.18752-29.18912-30.67904 0-17.03424 13.09696-30.81728 29.18912-30.81728h195.4048c16.09728 0 29.18912 13.77792 29.18912 30.71488a29.6192 29.6192 0 0 1-8.064 21.4272 29.50656 29.50656 0 0 1-20.736 9.33888l-0.38912 0.01536h-195.4048zM748.20608 667.91936c-16.32256-0.42496-29.47072-14.16704-29.18912-30.6176 0-17.05984 13.09696-30.86336 29.18912-30.86336h195.4048c16.09728 0 29.18912 13.80352 29.18912 30.77632a29.31712 29.31712 0 0 1-7.79776 21.29408 29.22496 29.22496 0 0 1-20.44416 9.39008l-0.9472 0.0256h-195.4048zM748.20608 530.1504c-16.32256-0.42496-29.47072-14.16704-29.18912-30.62272 0-17.024 13.09696-30.7968 29.18912-30.7968h195.4048c16.09728 0 29.18912 13.7728 29.18912 30.70976 0.3072 8.04352-2.46272 15.53408-7.79776 21.29408s-12.5952 9.09312-20.44416 9.3952l-0.98816 0.02048h-195.36384z" p-id="2094" fill="#499C54"></path></svg>