<?xml version="1.0" standalone="no"?><!DOCTYPE svg PUBLIC "-//W3C//DTD SVG 1.1//EN" "http://www.w3.org/Graphics/SVG/1.1/DTD/svg11.dtd"><svg t="1608026965834" class="icon" viewBox="0 0 1024 1024" version="1.1" xmlns="http://www.w3.org/2000/svg" p-id="2962" width="16" height="16" xmlns:xlink="http://www.w3.org/1999/xlink"><defs><style type="text/css"></style></defs><path d="M512 1024C229.239467 1024 0 794.760533 0 512 0 229.239467 229.239467 0 512 0c282.760533 0 512 229.239467 512 512 0 282.760533-229.239467 512-512 512z m157.832533-887.296L587.946667 136.533333C495.957333 136.533333 436.565333 209.066667 436.565333 321.3312v85.230933h-82.3296a11.946667 11.946667 0 0 0-9.1136 4.437334 16.896 16.896 0 0 0-3.754666 10.8544v123.460266c0 8.465067 5.768533 15.325867 12.868266 15.325867h82.3296v311.5008c0 4.096 1.365333 7.953067 3.754667 10.8544a11.946667 11.946667 0 0 0 9.1136 4.471467h107.383467a11.946667 11.946667 0 0 0 9.1136-4.471467 16.896 16.896 0 0 0 3.754666-10.8544v-311.5008h96.256a11.946667 11.946667 0 0 0 9.1136-4.471467 16.896 16.896 0 0 0 3.754667-10.8544V421.888c0-8.465067-5.768533-15.291733-12.868267-15.291733h-96.256V334.301867c0-34.7136 6.9632-52.3264 44.987734-52.3264h55.159466c7.099733 0 12.868267-6.8608 12.868267-15.325867V151.995733c0-8.430933-5.7344-15.291733-12.834133-15.291733z" fill="#595959" p-id="2963"></path></svg>