<?xml version="1.0" standalone="no"?><!DOCTYPE svg PUBLIC "-//W3C//DTD SVG 1.1//EN" "http://www.w3.org/Graphics/SVG/1.1/DTD/svg11.dtd"><svg t="1608027042911" class="icon" viewBox="0 0 1024 1024" version="1.1" xmlns="http://www.w3.org/2000/svg" p-id="5426" width="16" height="16" xmlns:xlink="http://www.w3.org/1999/xlink"><defs><style type="text/css"></style></defs><path d="M524.2355712 73.45493333c1.28887467 0 2.62690133 0.07645867 3.964928 0.19114667 26.22532267 2.14084267 45.67313067 25.083904 43.515904 51.12354133l-25.18766933 302.27387734c-1.58378667 40.46301867 4.72951467 53.94158933 13.221888 53.94158933 11.22304 0 26.279936-23.70218667 31.86141866-39.56736 1.06496-3.02557867 1.96061867-5.07904 2.79620267-6.65736533l75.27901867-244.53666134c6.32968533-20.40354133 25.16036267-33.51620267 45.52567466-33.51620266 4.603904 0 9.306112 0.66628267 13.975552 2.097152 25.06752 7.667712 39.206912 34.15517867 31.50097067 59.27185066L684.6840832 464.83592533c-38.17472 124.22894933-16.973824 158.908416 10.436608 158.908416 10.81344 0 22.60445867-5.40125867 32.12356267-12.828672l90.37960533-70.81710933c8.95658667-7.50933333 19.85194667-11.19573333 30.69269333-11.19573333 13.533184 0 26.968064 5.718016 36.36701867 16.85367466 16.941056 19.96663467 14.467072 49.88928-5.62517333 66.813952l-158.05098667 133.234688c-46.268416 83.20887467-99.19965867 111.98464-99.19965867 111.98464l-0.73181866 89.47848534H345.72096853l-1.196032-85.835776C289.70407253 761.102336 273.07431253 637.93834667 273.07431253 637.93834667L138.63266987 354.451456c-13.98101333-22.216704-7.20896-51.46760533 15.040512-65.355776 7.83701333-4.97527467 16.58606933-7.26357333 25.20951466-7.26357333 15.83240533 0 31.342592 7.86978133 40.38656 22.24401066l74.99502934 161.726464c0.06007467 0.049152 0.06007467 0.049152 0.06007466 0.12561067 7.17073067 11.41418667 12.65937067 15.663104 16.826368 15.663104 12.18423467 0 13.32565333-36.257792 13.34203734-37.257216l-44.73924267-250.68612267c-4.56021333-25.79387733 12.68667733-50.42449067 38.54609067-55.02839466a48.562176 48.562176 0 0 1 8.37768533-0.73181867c22.61538133 0 42.696704 16.19285333 46.78724267 39.124992l45.68405333 255.94538667s7.55848533 17.596416 16.41130667 17.596416c5.17188267 0 10.82436267-6.06754133 15.613952-25.280512l25.67918933-308.34141867c2.064384-24.75076267 22.87752533-43.47767467 47.382528-43.47767467" fill="#499C54" p-id="5427"></path></svg>