<svg t="1615172249930" class="icon" viewBox="0 0 1024 1024" version="1.1" xmlns="http://www.w3.org/2000/svg" p-id="1717" width="13" height="13"><path d="M480.392533 0.546133c31.402667 0 53.794133 17.954133 58.299734 44.8512v403.592534h31.402666v-354.304c8.942933-26.8288 31.402667-44.782933 58.299734-44.782934 31.402667 0 53.794133 17.954133 58.231466 44.8512v385.570134c9.0112 4.5056 13.448533 9.0112 22.459734 13.448533v-260.096c8.942933-26.8288 26.897067-44.782933 58.299733-44.782933 31.402667 0 53.794133 17.954133 58.299733 44.8512 2.730667 133.256533 3.754667 241.732267 3.208534 325.495466a238.933333 238.933333 0 0 0-221.525334 416.768c-19.114667 4.3008-39.185067 6.5536-59.733333 6.5536a275.933867 275.933867 0 0 1-224.187733-112.093866c-53.794133-53.794133-125.610667-170.3936-215.2448-345.2928-13.448533-22.391467 0-49.288533 22.459733-67.242667a50.517333 50.517333 0 0 1 71.68 8.942933l80.759467 134.485334V188.962133c8.942933-26.897067 31.402667-44.8512 58.299733-44.8512 31.402667 0 53.794133 17.954133 58.299733 44.8512v286.993067c8.942933-4.5056 13.448533-4.5056 22.391467-9.0112V45.397333c8.942933-26.897067 31.402667-44.8512 58.299733-44.8512z" p-id="1718" fill="#499C54"></path><path d="M796.194133 662.528h51.6096c12.4928 0 22.596267 10.103467 22.596267 22.528v239.4112a22.596267 22.596267 0 0 1-22.528 22.528h-51.677867a22.596267 22.596267 0 0 1-22.596266-22.528v-239.342933c0-12.4928 10.103467-22.596267 22.528-22.596267z m-142.062933 0h51.6096c12.4928 0 22.596267 10.103467 22.596267 22.528v239.4112a22.596267 22.596267 0 0 1-22.528 22.528h-51.677867a22.596267 22.596267 0 0 1-22.664533-22.528v-239.342933c0-12.4928 10.171733-22.596267 22.664533-22.596267z" p-id="1719" fill="#499C54"></path></svg>