<?xml version="1.0" standalone="no"?><!DOCTYPE svg PUBLIC "-//W3C//DTD SVG 1.1//EN" "http://www.w3.org/Graphics/SVG/1.1/DTD/svg11.dtd"><svg t="1610684534829" class="icon" viewBox="0 0 1024 1024" version="1.1" xmlns="http://www.w3.org/2000/svg" p-id="18744" width="16" height="16" xmlns:xlink="http://www.w3.org/1999/xlink"><defs><style type="text/css"></style></defs><path d="M771.73 338.073H252.27a20.92 20.92 0 0 0-20.92 20.922v435.608a20.92 20.92 0 0 0 20.92 20.921h92.608v146.802c0 34.06 27.611 61.674 61.675 61.674 34.06 0 61.674-27.611 61.674-61.674V815.524h86.262v146.802c0 34.06 27.611 61.674 61.675 61.674 34.06 0 61.674-27.611 61.674-61.674V815.524h93.894a20.92 20.92 0 0 0 20.921-20.921V358.995a20.924 20.924 0 0 0-20.924-20.922z m-628.326-0.102c-34.06 0-61.674 27.612-61.674 61.675v250.497c0 34.061 27.611 61.675 61.674 61.675 34.06 0 61.675-27.611 61.675-61.675V399.646c-0.003-34.06-27.614-61.675-61.675-61.675z m737.192 0c-34.06 0-61.675 27.612-61.675 61.675v250.497c0 34.061 27.612 61.675 61.675 61.675 34.06 0 61.674-27.611 61.674-61.675V399.646c0-34.06-27.611-61.675-61.674-61.675z m-624.121-30.449h509.824c13.3 0 23.219-12.252 20.487-25.27-16.864-80.375-68.037-148.11-137.474-187.239l43.583-78.637A11.022 11.022 0 0 0 673.612 5.69L629.7 84.92c-35.967-16.69-76.05-26.012-118.312-26.012-42.265 0-82.349 9.322-118.315 26.013L349.159 5.688a11.022 11.022 0 0 0-19.281 10.685l43.583 78.638c-69.437 39.132-120.61 106.864-137.474 187.242-2.734 13.017 7.185 25.269 20.488 25.269z m407.037-117.195c0 13.092-10.613 23.708-23.708 23.708-13.092 0-23.707-10.613-23.707-23.708 0-13.092 10.613-23.707 23.707-23.707 13.095 0 23.708 10.615 23.708 23.707zM382.964 166.62c13.092 0 23.708 10.613 23.708 23.707 0 13.092-10.614 23.708-23.708 23.708-13.092 0-23.708-10.613-23.708-23.708 0-13.092 10.614-23.707 23.708-23.707z" fill="#595959" p-id="18745"></path></svg>