<?xml version="1.0" standalone="no"?><!DOCTYPE svg PUBLIC "-//W3C//DTD SVG 1.1//EN" "http://www.w3.org/Graphics/SVG/1.1/DTD/svg11.dtd"><svg t="1615446492762" class="icon" viewBox="0 0 1024 1024" version="1.1" xmlns="http://www.w3.org/2000/svg" p-id="2232" width="16" height="16" xmlns:xlink="http://www.w3.org/1999/xlink"><defs><style type="text/css"></style></defs><path d="M1001.175714 593.762001L700.806246 293.324796a76.091491 76.091491 0 0 0-107.566725 0 76.023754 76.023754 0 0 0 0 107.544146l171.713884 171.826779H152.653982v-115.288769a76.046333 76.046333 0 0 0-152.115245 0v152.092666c0 6.931777 2.145012 13.253918 3.951338 19.621218-1.806326 6.389879-3.951339 12.644283-3.951338 19.621218a76.068912 76.068912 0 0 0 76.046333 76.068912h686.020111L593.239521 894.131468a76.046333 76.046333 0 1 0 107.566725 107.566726L1001.175714 701.328726a76.091491 76.091491 0 0 0 0-107.566725z" fill="#499C54" p-id="2233"></path></svg>