<?xml version="1.0" standalone="no"?><!DOCTYPE svg PUBLIC "-//W3C//DTD SVG 1.1//EN" "http://www.w3.org/Graphics/SVG/1.1/DTD/svg11.dtd"><svg t="1609148587487" class="icon" viewBox="0 0 1025 1024" version="1.1" xmlns="http://www.w3.org/2000/svg" p-id="3123" width="17.0166015625" height="17" xmlns:xlink="http://www.w3.org/1999/xlink"><defs><style type="text/css"></style></defs><path d="M592.52 731.063c-28.63 0-52.658 26.073-52.658 58.792s23.517 58.792 52.657 58.792c28.63 0 52.657-26.073 52.657-58.792 0-32.207-23.516-58.792-52.657-58.792z m59.814-352.24c0-32.207-27.096-57.769-60.326-57.769s-59.814 26.073-59.814 57.77c0 3.067 0 5.623 0.51 8.18l21.473 265.84c0 19.939 16.87 35.787 37.831 35.787s37.831-15.848 37.831-35.786l21.983-265.842c0.511-2.556 0.511-5.623 0.511-8.18z m361.441 268.91l-85.887-82.82c-4.6-4.601-9.713-6.646-15.848-7.669h-11.247c-7.157-0.511-14.315 2.045-20.45 7.669l-85.887 82.82c-11.758 11.247-13.292 32.207-3.067 45.5 10.225 13.291 28.629 14.825 40.899 3.067l39.876-37.832v296.516c0 19.426 13.292 35.786 30.163 35.786h6.646c16.359 0 29.14-15.848 29.14-35.786V660.002l37.831 35.786c11.758 11.247 30.163 10.225 40.899-3.067 10.736-12.78 9.713-32.719-3.068-44.989zM746.4 942.202H88.955L594.053 89.466l221.875 373.2c10.736 18.404 33.741 23.517 50.101 11.247s20.96-37.32 10.225-55.213L644.665 29.14C633.929 10.736 615.525 0 594.053 0c-20.45 0-39.876 10.736-50.1 29.14L10.224 928.91C-0.511 947.316-1.022 969.299 8.18 988.726c10.224 20.45 30.674 33.23 52.657 33.23H746.4c19.938 0 36.298-17.893 36.298-39.876s-16.36-39.876-36.298-39.876z" p-id="3124" fill="#595959"></path></svg>