<svg t="1639105016951" class="icon" viewBox="0 0 1024 1024" version="1.1" xmlns="http://www.w3.org/2000/svg" p-id="3697"
     width="16" height="16">
    <path
        d="M301.4 643.5L98 440.2v-0.1l54.1-54.1c16.5-16.5 41.2-21.4 62.7-12.5l136.9 56.7h0.1L616 226.5v-0.1l-70.7-70.7v-0.1l40.6-40.6c22.5-22.5 58.9-22.5 81.4 0l40.6 40.6 0.2-0.2 162.6 162.7-0.2 0.2 40.6 40.6c22.5 22.5 22.5 58.9 0 81.4l-40.6 40.6h-0.1l-70.8-70.7h-0.1L595.8 674.3v0.1l56.7 137c8.9 21.5 4 46.2-12.5 62.7l-54.1 54.1h-0.1L382.7 724.9h-0.1l-203 203H98.2v-81.3l203.1-203.1h0.1z"
        p-id="3698" fill="#499C54"></path>
</svg>