<?xml version="1.0" standalone="no"?><!DOCTYPE svg PUBLIC "-//W3C//DTD SVG 1.1//EN" "http://www.w3.org/Graphics/SVG/1.1/DTD/svg11.dtd"><svg t="1608026944706" class="icon" viewBox="0 0 1024 1024" version="1.1" xmlns="http://www.w3.org/2000/svg" p-id="2436" width="16" height="16" xmlns:xlink="http://www.w3.org/1999/xlink"><defs><style type="text/css"></style></defs><path d="M512 0C227.555556 0 0 227.555556 0 512s227.555556 512 512 512 512-227.555556 512-512-227.555556-512-512-512z m0 745.244444c-28.444444 0-51.2-22.755556-51.2-51.2s22.755556-51.2 51.2-51.2 51.2 22.755556 51.2 51.2c0 34.133333-22.755556 51.2-51.2 51.2z m85.333333-250.311111c-45.511111 22.755556-56.888889 45.511111-56.888889 73.955556v22.755555H472.177778V568.888889c0-45.511111 17.066667-79.644444 62.577778-108.088889 39.822222-22.755556 56.888889-45.511111 56.888888-79.644444 0-34.133333-28.444444-62.577778-73.955555-62.577778s-73.955556 28.444444-79.644445 68.266666H369.777778c5.688889-73.955556 56.888889-136.533333 153.6-136.533333 85.333333 0 147.911111 51.2 147.911111 125.155556-5.688889 56.888889-28.444444 91.022222-73.955556 119.466666z" fill="#499C54" p-id="2437"></path></svg>