<?xml version="1.0" standalone="no"?><!DOCTYPE svg PUBLIC "-//W3C//DTD SVG 1.1//EN" "http://www.w3.org/Graphics/SVG/1.1/DTD/svg11.dtd"><svg t="1608027656486" class="icon" viewBox="0 0 1077 1024" version="1.1" xmlns="http://www.w3.org/2000/svg" p-id="7429" width="16.828125" height="16" xmlns:xlink="http://www.w3.org/1999/xlink"><defs><style type="text/css"></style></defs><path d="M414.989474 1024H242.526316C32.336842 1024 0 948.547368 0 786.863158v-172.463158c0-91.621053 16.168421-118.568421 91.621053-188.631579L517.389474 32.336842c48.505263-43.115789 134.736842-43.115789 183.242105 0l339.536842 317.978947c21.557895 21.557895 37.726316 53.894737 37.726316 86.231579 0 32.336842-16.168421 64.673684-37.726316 86.231579l-377.263158 361.094737C582.063158 964.715789 517.389474 1024 414.989474 1024z m194.021052-948.547368c-16.168421 0-26.947368 5.389474-32.336842 10.778947L150.905263 485.052632c-64.673684 59.284211-64.673684 64.673684-64.673684 129.347368v172.463158c0 134.736842 10.778947 156.294737 161.68421 156.294737h172.463158c70.063158 0 107.789474-37.726316 194.021053-113.178948l32.336842-32.336842 339.536842-328.757894c10.778947-10.778947 10.778947-21.557895 10.778948-32.336843 0-10.778947-5.389474-21.557895-10.778948-32.336842L646.736842 86.231579c-10.778947-5.389474-26.947368-10.778947-37.726316-10.778947zM269.473684 862.315789c-59.284211 0-107.789474-48.505263-107.789473-107.789473s48.505263-107.789474 107.789473-107.789474 107.789474 48.505263 107.789474 107.789474-48.505263 107.789474-107.789474 107.789473z m0-145.515789c-21.557895 0-37.726316 16.168421-37.726316 37.726316 0 21.557895 16.168421 37.726316 37.726316 37.726316s37.726316-16.168421 37.726316-37.726316c0-21.557895-16.168421-37.726316-37.726316-37.726316z" p-id="7430" fill="#595959"></path></svg>