<?xml version="1.0" standalone="no"?><!DOCTYPE svg PUBLIC "-//W3C//DTD SVG 1.1//EN" "http://www.w3.org/Graphics/SVG/1.1/DTD/svg11.dtd"><svg t="1612689353359" class="icon" viewBox="0 0 1331 1024" version="1.1" xmlns="http://www.w3.org/2000/svg" p-id="19298" width="20.796875" height="16" xmlns:xlink="http://www.w3.org/1999/xlink"><defs><style type="text/css"></style></defs><path d="M183.396933 362.29035L95.845633 678.089423v-493.564051h133.118935l21.811026-63.077896 5.734354-16.588667a19.148647 19.148647 0 0 1 18.227054-12.595099h217.700658c8.191934 0 15.564675 5.119959 18.124656 12.595099l5.734354 16.588667 21.913424 63.077896h509.026328c2.047984 0 3.891169 0.819193 5.324758 2.047983a7.167943 7.167943 0 0 1 2.252781 5.222359v103.423172h95.948033V135.578563a44.236446 44.236446 0 0 0-45.05564-43.314853H607.227142L586.542508 32.25779A48.946808 48.946808 0 0 0 540.05328 0.002048H227.121383a48.946808 48.946808 0 0 0-46.489228 32.255742L159.742722 92.161311H41.369269A40.550076 40.550076 0 0 0 0 132.096991v837.625299c0 30.105359 25.292598 54.373965 56.421949 54.373965h1038.942088a71.679427 71.679427 0 0 0 69.631443-51.404389l164.862681-595.144038a34.918121 34.918121 0 0 0-6.451148-31.129351 37.887697 37.887697 0 0 0-29.695763-14.131087H224.254206a41.983664 41.983664 0 0 0-40.754874 30.105359z m893.637651 569.339445h-952.312382L262.346701 436.222558a16.383869 16.383869 0 0 1 15.871873-11.775906h929.477364c2.355181 0 4.710362 1.023992 6.143951 2.969577 1.433589 1.843185 2.047984 4.198366 1.33119 6.451148L1077.034584 931.834593z" p-id="19299" fill="#595959"></path></svg>