<?xml version="1.0" standalone="no"?><!DOCTYPE svg PUBLIC "-//W3C//DTD SVG 1.1//EN" "http://www.w3.org/Graphics/SVG/1.1/DTD/svg11.dtd"><svg t="1618136216169" class="icon" viewBox="0 0 1024 1024" version="1.1" xmlns="http://www.w3.org/2000/svg" p-id="1980" width="15" height="15" xmlns:xlink="http://www.w3.org/1999/xlink"><defs><style type="text/css"></style></defs><path d="M405.45 714.15a20.29 20.29 0 0 1-19.8-24.67l36.22-163.75a20.28 20.28 0 0 1 33.51-10.55l123.49 113.28a20.27 20.27 0 0 1-7.58 34.29l-159.72 50.46a20.15 20.15 0 0 1-6.12 0.94z m48.42-145.32l-21 95.12 92.79-29.31z m159.94 43.09a42.92 42.92 0 0 1-29.18-11.4L482.59 507a43.41 43.41 0 0 1-2.7-61.21l303.24-331.57a43.25 43.25 0 0 1 61.17-2.68l102 93.56a43.38 43.38 0 0 1 2.7 61.16L645.78 597.85a42.94 42.94 0 0 1-30 14c-0.64 0-1.3 0.06-1.94 0.06z m203.08-470.49l-3.84 0.17-303.22 331.53a2.8 2.8 0 0 0 0.18 3.92l102 93.55a3 3 0 0 0 1.93 0.7L919.1 238.94a2.77 2.77 0 0 0-0.18-3.91z m0 0" p-id="1981" fill="#499C54"></path><path d="M220.82 923.26c-28.6 0-53-8.24-72.69-24.64-24.87-20.66-39-47.11-42-78.59-2.53-26.55 2.76-56.4 16.18-91.26 23.52-61.09 69.55-129.94 114.06-196.52 80.87-121 164.49-246.06 104-308.72-29.91-31-78-36.07-143-15.09-52 16.79-94.19 44.27-94.61 44.54a21.5 21.5 0 1 1-23.58-36c1.92-1.26 47.54-31 105-49.5 80.76-26.08 145.47-17 187.15 26.15 21 21.79 32.12 48.78 33 80.22 0.7 26.41-5.69 55.86-19.54 90-24.44 60.31-69.27 127.36-112.62 192.21-43.21 64.63-87.88 131.46-109.68 188.08-28.54 74.13-8 103.78 13.16 121.34C214.68 898 284.1 870.67 335.46 842c60-33.52 109.53-76.73 110-77.16a21.5 21.5 0 0 1 28.37 32.32c-2.16 1.89-53.45 46.67-117.43 82.39-38.5 21.49-73.71 35.21-104.64 40.79a174.6 174.6 0 0 1-30.94 2.92z" p-id="1982" fill="#499C54"></path></svg>