<?xml version="1.0" standalone="no"?><!DOCTYPE svg PUBLIC "-//W3C//DTD SVG 1.1//EN"
    "http://www.w3.org/Graphics/SVG/1.1/DTD/svg11.dtd">
<svg t="1641290233668" class="icon" viewBox="0 0 1024 1024" version="1.1" xmlns="http://www.w3.org/2000/svg" p-id="2128"
     width="16" height="16">
    <path
        d="M941.728 137.152C941.728 122.304 932.576 109.152 919.456 103.424 905.728 97.728 889.728 100.576 879.456 111.424L805.152 185.152C724.576 109.152 615.456 64 502.88 64 261.152 64 64 261.152 64 502.88 64 744.576 261.152 941.728 502.88 941.728 633.728 941.728 757.152 884 840.576 783.424 846.304 776 846.304 765.152 839.456 758.88L761.152 680C757.152 676.576 752 674.88 746.88 674.88 741.728 675.424 736.576 677.728 733.728 681.728 677.728 754.304 593.728 795.424 502.88 795.424 341.728 795.424 210.304 664 210.304 502.88 210.304 341.728 341.728 210.304 502.88 210.304 577.728 210.304 648.576 238.88 702.304 288.576L623.456 367.424C612.576 377.728 609.728 393.728 615.456 406.88 621.152 420.576 634.304 429.728 649.152 429.728L905.152 429.728C925.152 429.728 941.728 413.152 941.728 393.152L941.728 137.152Z"
        p-id="2129" fill="#499C54"></path>
</svg>