<?xml version="1.0" standalone="no"?><!DOCTYPE svg PUBLIC "-//W3C//DTD SVG 1.1//EN" "http://www.w3.org/Graphics/SVG/1.1/DTD/svg11.dtd"><svg t="1612771518107" class="icon" viewBox="0 0 1024 1024" version="1.1" xmlns="http://www.w3.org/2000/svg" p-id="1589" width="16" height="16" xmlns:xlink="http://www.w3.org/1999/xlink"><defs><style type="text/css"></style></defs><path d="M867.097 960.73c-236.782 0-473.561 0-710.319 0-1.621-0.57-3.219-1.368-4.881-1.662-41.11-7.36-68.489-30.932-82.43-70.13-2.399-6.751-3.64-13.94-5.426-20.924 0-236.778 0-473.558 0-710.32 0.566-1.638 1.345-3.215 1.662-4.897 8.433-45.148 35.242-73.16 79.338-84.998 3.893-1.052 7.823-1.894 11.737-2.838 203.532 0 407.047 0 610.579 0 25.424 5.612 45.38 20.776 63.487 38.124 30.071 28.829 59.594 58.25 88.509 88.258 18.188 18.861 34.527 39.428 40.456 66.068 0 203.536 0 407.071 0 610.603-0.565 1.62-1.344 3.198-1.66 4.88-8.434 45.168-35.223 73.157-79.34 85.019C874.939 958.943 871.006 959.804 867.097 960.73zM511.989 926.452c101.755 0 203.491 0.024 305.228-0.04 25.886 0 39.532-13.606 39.532-39.22 0.021-111.658 0.021-223.32 0-334.962 0-25.717-13.752-39.597-39.216-39.597-203.789-0.02-407.553-0.02-611.321 0-25.063 0.023-39.091 13.924-39.091 38.862-0.041 111.935-0.041 223.89 0.02 335.824 0 4.059 0.108 8.222 1.032 12.134 4.186 17.705 17.476 26.958 38.609 26.979C308.518 926.477 410.253 926.452 511.989 926.452zM494.429 409.806c72.591 0 145.161 0 217.729 0 27.884-0.02 41.302-13.374 41.302-41.174 0.021-76.079 0.021-152.142 0-228.221 0-27.989-13.146-41.154-41.197-41.154-145.158-0.02-290.296-0.02-435.434 0-27.487 0-40.922 13.29-40.942 40.628-0.064 76.355-0.064 152.708 0 229.083 0.02 27.315 13.604 40.817 40.837 40.817C349.291 409.806 421.861 409.806 494.429 409.806zM581.782 134.482c34.13 0 67.269 0 101.189 0 0 79.969 0 159.54 0 239.617-33.668 0-67.06 0-101.189 0C581.782 294.444 581.782 214.853 581.782 134.482z" p-id="1590" fill="#595959"></path></svg>