<?xml version="1.0" standalone="no"?><!DOCTYPE svg PUBLIC "-//W3C//DTD SVG 1.1//EN" "http://www.w3.org/Graphics/SVG/1.1/DTD/svg11.dtd"><svg t="1614849207414" class="icon" viewBox="0 0 1024 1024" version="1.1" xmlns="http://www.w3.org/2000/svg" p-id="2630" width="16" height="16" xmlns:xlink="http://www.w3.org/1999/xlink"><defs><style type="text/css"></style></defs><path d="M512.00988746 141.21142578c10.45623779 0 19.24145531 3.50024414 26.37542748 10.71331811l259.5421145 259.55200196C805.03668189 418.58105492 808.63085938 427.33660865 808.63085938 437.84228516c0 10.60949731-3.53485132 19.46887183-10.56994606 26.46936011-7.02026391 7.00543237-15.88952661 10.60949731-26.50891137 10.60949731-10.44140625 0-19.22167969-3.60900903-26.35565185-10.71331811L549.09863305 267.79370094V845.7097168c0 10.19915748-3.62384057 18.94976782-10.89624071 26.16284179-7.23284888 7.31195068-15.97357177 10.91601563-26.2122798 10.91601563-10.23376465 0-18.959656-3.60900903-26.22216796-10.91601563-7.24273705-7.21307397-10.87646508-15.96862769-10.87646508-26.16284179V267.79370094l-196.10760522 196.41906761C271.65484619 471.31213355 262.87951684 474.92114258 252.41833496 474.92114258c-10.61938477 0-19.45898438-3.60900903-26.4990232-10.60949731C218.86444068 457.31115699 215.36914062 448.45178247 215.36914062 437.84228516c0-10.50567651 3.55462623-19.26123023 10.69354248-26.36553931l259.53717042-259.55200196C492.7288816 144.71166992 501.52398658 141.21142578 511.97033691 141.21142578h0.03955055z" p-id="2631" fill="#499C54"></path></svg>