<?xml version="1.0" standalone="no"?><!DOCTYPE svg PUBLIC "-//W3C//DTD SVG 1.1//EN" "http://www.w3.org/Graphics/SVG/1.1/DTD/svg11.dtd"><svg t="1614849235047" class="icon" viewBox="0 0 1024 1024" version="1.1" xmlns="http://www.w3.org/2000/svg" p-id="2073" width="16" height="16" xmlns:xlink="http://www.w3.org/1999/xlink"><defs><style type="text/css"></style></defs><path d="M511.99011254 141.21142578c10.23376465 0 18.95471191 3.60900903 26.2122798 10.81713891 7.25262451 7.20812988 10.86657691 15.96862769 10.86657763 26.2666626v577.89129615l196.1619873-196.43884254c7.099365-7.00543237 15.90435815-10.61444068 26.34082031-10.61444139 10.61938477 0 19.43426538 3.50518822 26.51385474 10.51062059 7.04498291 7.10430908 10.54522705 15.96862769 10.54522706 26.57318092 0 10.40679908-3.54473877 19.16235352-10.69354248 26.37542748l-259.55694604 259.48278761C531.23156714 879.28833008 522.44635033 882.78857422 512.00988746 882.78857422c-10.45623779 0-19.24145531-3.50024414-26.3704834-10.71331811l-259.55200195-259.48278761C218.94848656 605.37939453 215.36914062 596.62384009 215.36914062 586.21704102c0-10.60949731 3.52496314-19.46887183 10.56994606-26.57318092C232.99395776 552.63842773 241.82861328 549.12829614 252.44799805 549.12829614c10.42163062 0 19.2167356 3.60900903 26.36553931 10.61444068l196.1125493 196.43884253V178.29522729c0-10.30297828 3.60900903-19.05853271 10.88635255-26.2666626C493.05517555 144.81549073 501.80084252 141.21142578 512.02966309 141.21142578h-0.03955055z" p-id="2074" fill="#499C54"></path></svg>