<?xml version="1.0" standalone="no"?><!DOCTYPE svg PUBLIC "-//W3C//DTD SVG 1.1//EN" "http://www.w3.org/Graphics/SVG/1.1/DTD/svg11.dtd"><svg t="1616673170244" class="icon" viewBox="0 0 1024 1024" version="1.1" xmlns="http://www.w3.org/2000/svg" p-id="10440" width="16" height="16" xmlns:xlink="http://www.w3.org/1999/xlink"><defs><style type="text/css"></style></defs><path d="M653.579806 0.108361h317.404292a51.194241 51.194241 0 0 1 37.542443 15.358272 51.194241 51.194241 0 0 1 15.358272 37.542443v317.404292a52.047478 52.047478 0 0 1-52.900715 52.900716 52.900715 52.900715 0 0 1-37.542444-15.358272 51.194241 51.194241 0 0 1-15.358272-37.542444V180.994678L479.519387 619.558673a49.487766 49.487766 0 0 1-37.542443 15.358272 51.194241 51.194241 0 0 1-52.900715-49.487766 49.487766 49.487766 0 0 1 15.358272-36.689206l438.563995-442.830181H653.579806a51.194241 51.194241 0 0 1-37.542444-15.358272A50.341003 50.341003 0 0 1 597.266141 53.009076a52.900715 52.900715 0 0 1 18.771221-37.542443 51.194241 51.194241 0 0 1 37.542444-15.358272z" p-id="10441" fill="#499C54"></path><path d="M970.13086 601.640689a54.60719 54.60719 0 0 0-54.60719 53.753952v260.23739H108.361143V108.469504h260.23739A54.60719 54.60719 0 0 0 426.618672 53.862314 53.753953 53.753953 0 0 0 369.45177 0.108361H53.753953A53.753953 53.753953 0 0 0 0 53.862314v916.376907a57.166902 57.166902 0 0 0 15.358272 38.395681 57.166902 57.166902 0 0 0 38.395681 15.358272h916.376907a52.900715 52.900715 0 0 0 53.753953-53.753953V655.394641a53.753953 53.753953 0 0 0-53.753953-53.753952z" p-id="10442" fill="#499C54"></path></svg>