<?xml version="1.0" encoding="UTF-8"?>
<svg width="240px" height="240px" viewBox="0 0 240 240" version="1.1"
     xmlns="http://www.w3.org/2000/svg"
     xmlns:xlink="http://www.w3.org/1999/xlink">
    <!-- Generator: Sketch 60.1 (88133) - https://sketch.com -->
    <title>logo</title>
    <desc>Created with Sketch.</desc>
    <g id="页面-1" stroke="none" stroke-width="1" fill="none" fill-rule="evenodd">
        <g id="画板" transform="translate(-188.000000, -314.000000)">
            <g id="logo" transform="translate(188.000000, 314.000000)">
                <path
                    d="M61.533,0 L178.467,0 C199.863,0 207.622,2.228 215.444,6.411 C223.267,10.595 229.405,16.733 233.589,24.556 C237.772,32.378 240,40.136 240,61.533 L240,178.467 C240,199.863 237.772,207.622 233.589,215.444 C229.405,223.267 223.267,229.405 215.444,233.589 C207.622,237.772 199.864,240 178.467,240 L61.533,240 C40.137,240 32.378,237.772 24.556,233.589 C16.733,229.405 10.595,223.267 6.411,215.444 C2.228,207.622 0,199.864 0,178.467 L0,61.533 C0,40.137 2.228,32.378 6.411,24.556 C10.595,16.733 16.733,10.595 24.556,6.411 C32.378,2.228 40.136,0 61.533,0 Z"
                    id="路径" fill="#FFFFFF" fill-rule="nonzero" stroke-width="0"></path>
                <path
                    d="M97.378,84.256 C108.672,75.918 119.36,66.806 129.365,57 M67.527,137.702 C95.779,123.484 121.707,105.326 144.59,83.95 M51,177.925 C91.255,162.105 127.97,139.241 159.63,110.852 M112.484,181.659 C134.66,168.996 155.473,154.219 174.649,137.603 M167.7,181.507 C175.317,175.914 182.739,170.07 189.953,163.987"
                    id="形状" stroke="#2445F8" stroke-width="10.5" stroke-linecap="round" stroke-linejoin="round"></path>
            </g>
        </g>
    </g>
</svg>
