<svg t="1629705327461" class="icon" viewBox="0 0 1024 1024" version="1.1" xmlns="http://www.w3.org/2000/svg" p-id="10039" width="18" height="18"><path d="M953.728 719.36c-7.296-92.032-46.72-169.088-110.784-234.24-36.736-37.44-77.632-69.696-123.904-94.72-22.272-12.032-45.056-23.104-69.44-30.656-0.128-0.064-0.256-0.128-0.384-0.192C632 354.432 631.872 354.176 617.536 364.736 596.672 380.096 572.8 387.392 547.904 392.384 515.328 398.848 482.496 400 449.408 397.056c-21.504-1.92-42.752-5.824-62.656-14.464C378.88 379.2 371.52 374.72 364.224 370.304 357.568 366.208 351.104 366.08 343.936 368.896 297.728 387.008 255.744 411.968 218.112 444.352 179.136 477.888 145.408 515.904 119.424 560.512c-23.488 40.256-39.232 83.328-46.208 129.408-6.784 45.632-5.696 91.072 5.824 135.872 12.928 50.88 41.6 90.112 87.488 116.288 32.128 18.368 67.072 28.864 102.976 36.416 30.144 6.4 60.672 9.856 91.328 12.48 1.536 0.128 3.072 0.64 4.544 0.96 99.648 0 199.232 0 298.88 0 7.168-0.96 14.4-2.112 21.568-2.816 41.344-4.16 81.92-11.584 121.28-24.96 34.432-11.776 65.92-28.544 91.648-55.04 20.864-21.632 35.392-46.976 44.352-75.584C954.752 796.352 956.8 758.016 953.728 719.36zM544.96 797.12c-9.344 4.544-19.392 7.616-30.08 11.84 0 12.096 0.192 24.832 0 37.44-0.192 7.936-0.448 8.384-8.512 8.64-11.264 0.32-22.528-0.064-33.728-0.128-2.752 0-4.16-1.344-4.352-3.904-0.512-6.144-0.96-12.288-1.088-18.432-0.192-6.784-0.064-13.632-0.064-20.672-10.112-1.792-20.096-3.328-30.016-5.376-14.336-3.008-28.288-7.104-40.128-16.32-1.216-0.96-2.432-3.264-2.048-4.48 4.096-15.04 8.64-30.08 13.056-45.056 0.128-0.64 0.512-1.152 1.088-2.112 4.544 1.856 9.088 3.776 13.568 5.568 17.792 7.296 35.968 13.312 55.424 14.016 11.904 0.384 23.424-0.384 33.536-7.808 17.6-12.992 18.24-34.304 0.512-47.04-7.424-5.376-16.32-8.96-24.768-12.736-15.424-6.912-31.552-12.48-46.464-20.416-18.816-9.92-33.6-24.512-40.32-45.504-11.52-36.032 3.264-73.536 36.672-92.544 9.024-5.056 19.136-8.192 28.928-11.712 3.008-1.088 3.968-2.112 3.968-5.12 0.128-11.584 0.448-23.104 0.704-34.688C470.976 476.032 472.96 474.176 477.376 474.304c11.392 0.32 22.784 0.64 34.176 0.576 4.544 0 5.888 2.432 6.08 6.08 0.384 5.568 0.512 11.072 0.64 16.64 0.064 4.096 0 8.256-0.32 12.352C517.632 513.984 518.976 515.52 523.2 516.224 539.776 519.04 556.416 521.664 571.648 529.408 580.736 534.016 580.736 533.952 578.112 544 574.72 557.312 571.648 570.752 564.8 583.552c-2.304-1.024-4.544-1.92-6.784-2.88C538.432 572.8 518.208 567.36 497.024 567.808 490.496 567.936 483.648 569.152 477.568 571.52 462.784 577.28 458.368 595.968 468.352 608.32 474.24 615.616 482.176 619.904 490.496 623.552c17.152 7.488 34.688 14.016 51.52 22.144 17.152 8.192 31.744 19.904 40.832 37.184C601.024 717.824 595.712 772.224 544.96 797.12z" p-id="10040" fill="#499C54"></path><path d="M315.072 209.28c12.8 30.976 25.344 62.144 37.504 93.44 5.376 13.888 15.168 22.656 28.992 26.496 15.488 4.288 31.232 8.256 47.104 11.136 43.84 7.744 87.424 6.784 130.112-7.168 11.968-3.904 23.488-9.344 34.496-15.424C604.032 311.808 609.728 302.08 608.192 289.152c-0.576-5.184-0.96-10.432-0.64-15.68 2.496-48.128 16.704-92.864 38.912-135.36 4.16-7.872 7.68-16.512 9.472-25.216 3.584-17.344-4.928-29.76-21.568-33.216-3.84-0.832-7.872-0.832-11.84-0.704C609.664 79.552 597.952 83.904 587.136 91.072 580.864 95.36 574.4 99.584 567.552 102.592 554.688 108.16 544 104 537.92 91.328 535.168 85.824 533.568 79.808 530.752 74.304 526.528 66.048 522.688 57.28 516.928 50.176c-20.992-25.984-58.304-23.68-76.032 4.672C436.16 62.4 432.704 70.912 429.76 79.36 423.808 96.576 412.16 107.2 394.24 109.568 380.16 111.488 365.824 111.616 351.616 112.512c0-0.384 0-0.832-0.064-1.216-3.456 0-6.912-0.192-10.432 0.064C330.688 112.064 320 111.744 309.952 113.92 293.44 117.44 285.952 129.088 288.32 145.472 289.216 151.04 291.264 156.544 293.504 161.728 300.544 177.6 308.416 193.216 315.072 209.28z" p-id="10041" fill="#499C54"></path></svg>