<svg t="1658824351627" class="icon" viewBox="0 0 1024 1024" version="1.1" xmlns="http://www.w3.org/2000/svg" p-id="3338" width="16" height="16"><path d="M896.739769 522.987463L543.250653 169.10453A39.381586 39.381586 0 0 0 514.974674 157.605107c-1.338974-0.157526-2.520422-0.787632-3.938158-0.787631a39.145297 39.145297 0 0 0-15.988924 3.544342 38.830244 38.830244 0 0 0-13.704792 8.663949l-318.990847 316.706715a39.22406 39.22406 0 1 0 55.685563 55.449273l253.617414-251.884624v689.571571c0 21.659872 17.642951 39.145297 39.381586 39.145297s39.381586-17.485424 39.381586-39.145297v-691.54065L840.817917 578.200446a39.381586 39.381586 0 0 0 55.685563 0.157526 38.909007 38.909007 0 0 0 0.157526-55.370509z m47.257904-444.46058H78.075359a39.302823 39.302823 0 0 1-39.381586-39.145297c0-21.581109 17.642951-39.145297 39.381586-39.145296H943.997673a39.22406 39.22406 0 1 1 0 78.290593z" p-id="3339" fill="#499C54"></path></svg>