<?xml version="1.0" standalone="no"?><!DOCTYPE svg PUBLIC "-//W3C//DTD SVG 1.1//EN" "http://www.w3.org/Graphics/SVG/1.1/DTD/svg11.dtd"><svg t="1610267498560" class="icon" viewBox="0 0 1024 1024" version="1.1" xmlns="http://www.w3.org/2000/svg" p-id="4222" width="20" height="20" xmlns:xlink="http://www.w3.org/1999/xlink"><defs><style type="text/css"></style></defs><path d="M469.333333 853.333333h298.666667a85.333333 85.333333 0 0 0 85.333333-85.333333v-341.333333h-384v426.666666z m-85.333333 0V426.666667H170.666667v341.333333a85.333333 85.333333 0 0 0 85.333333 85.333333h128zM853.333333 341.333333V256a85.333333 85.333333 0 0 0-85.333333-85.333333H256a85.333333 85.333333 0 0 0-85.333333 85.333333v85.333333h682.666666zM256 85.333333h512a170.666667 170.666667 0 0 1 170.666667 170.666667v512a170.666667 170.666667 0 0 1-170.666667 170.666667H256a170.666667 170.666667 0 0 1-170.666667-170.666667V256a170.666667 170.666667 0 0 1 170.666667-170.666667z" p-id="4223" fill="#499C54"></path></svg>