<?xml version="1.0" standalone="no"?><!DOCTYPE svg PUBLIC "-//W3C//DTD SVG 1.1//EN" "http://www.w3.org/Graphics/SVG/1.1/DTD/svg11.dtd"><svg t="1610267493349" class="icon" viewBox="0 0 1024 1024" version="1.1" xmlns="http://www.w3.org/2000/svg" p-id="3985" width="20" height="20" xmlns:xlink="http://www.w3.org/1999/xlink"><defs><style type="text/css"></style></defs><path d="M801.8225 410.69899971l-2.26500029 0c-16.65600029 0-30.321 4.779-43.47150029 12.933-11.53199971-33.6015-40.83450029-57.80999971-78.5760003-57.80999971-16.65600029 0-32.58299971 4.77749971-45.738 12.933-11.52749971-33.6015-40.833-57.80999971-78.6044997-57.80999971-14.71650029 0-28.41149971 3.69600029-40.51350001 10.161l0-86.47350029c0-47.10899971-35.64299971-85.26449971-83.06700029-85.26449971s-85.9005 38.18999971-85.9005 85.26449971l0 331.0515-52.137-51.948c-33.5385-33.31649971-92.90850029-28.56750029-121.4804997 0C141.49999971 552.311 122.76950029 609.76549971 163.66699971 650.69600029l239.8995 238.30499971c4.93350029 4.90349971 10.3815 9.01050029 16.11600029 12.48450029 43.72949971 35.6715 93.861 56.78849971 199.82850029 56.78849971 242.09399971 0 264.519-130.617 264.519-291.71999971L884.03000029 495.998C883.99549971 448.89049971 849.28100029 410.69899971 801.8225 410.69899971L801.8225 410.69899971 801.8225 410.69899971zM838.76900029 666.5255c0 136.3185-0.63749971 246.8385-219.2924997 246.8385-92.61600029 0-148.23-20.63549971-190.36649971-62.48850029L202.013 625.2785c-20.097-20.09549971-15.03150029-45.77100029 1.40550029-62.23650029 16.43249971-16.43100029 46.62600029-17.0055 62.52000029-1.2390003 0 0 39.84599971 39.591 74.1825 73.73099971 25.956 25.83150029 48.79199971 48.50700029 48.79199971 48.5070003l0-430.42500001c0-22.29149971 18.2205-40.38450029 40.70400029-40.38450029 22.4865 0 37.83899971 18.09299971 37.83899971 40.3845003l0 273.7874997 0.44849971 0c-0.288 1.43399971-0.44849971 2.961-0.44849971 4.491 0 12.3885 10.12799971 22.45349971 22.6140003 22.45349971 12.48599971 0 22.61400029-10.03200029 22.61400029-22.45349971 0-1.53150029-0.15900029-3.0285-0.44700029-4.491l0.44700029 0 0-112.212c0-22.293 16.24650029-40.38599971 38.72850029-40.3859997 0 0 39.81300029-0.54 39.81300029 40.3859997l0 148.10699971 0.44849971 0c-0.28649971 1.43399971-0.44849971 2.961-0.44849971 4.491 0 12.3885 10.12799971 22.45349971 22.6140003 22.45349971 12.48450029 0 22.6125-10.03200029 22.6125-22.45349971 0-1.53150029-0.15599971-3.0285-0.4425003-4.491l0.4425003 0 0-103.23c0-22.293 15.99000029-40.3875 38.47650029-40.3875 0 0 40.644 2.5515 40.644 40.3875l0 130.17449971 0.44250029 0c-0.28649971 1.43250029-0.44250029 2.96399971-0.44250029 4.48949971 0 12.3885 10.12799971 22.45349971 22.61400029 22.4534997 12.48450029 0 22.03949971-10.03200029 22.03949971-22.4534997 0-1.52700029-0.16049971-3.0285-0.41249971-4.48949971l0.41249971 0 0-88.866c0-22.293 16.75199971-40.38149971 39.23849971-40.38149971 0 0 39.40049971-1.59450029 39.4004997 40.38149971l0 165.14700029L838.76900029 666.52399971 838.76900029 666.5255zM310.148 371.78150029l0-75.3885c-7.1685-16.08450029-11.24700029-33.89249971-11.24700029-52.6185 0-71.47050029 57.93599971-129.4065 129.411-129.4065 71.47199971 0 129.40800029 57.93599971 129.40800029 129.4065 0 9.74400029-1.1475 19.23599971-3.21900029 28.377 16.2765 0.63749971 30.95849971 7.39199971 41.6594997 18.25049971 4.14150029-14.84399971 6.59400029-30.41250029 6.5940003-46.593 0-96.31950029-78.09900029-174.4155-174.4155-174.4155-96.31500029 0-174.40949971 78.09599971-174.40949971 174.4155C253.898 294.44900029 275.62249971 339.929 310.148 371.78150029L310.148 371.78150029 310.148 371.78150029zM310.148 371.78150029" p-id="3986" fill="#499C54"></path></svg>