<?xml version="1.0" standalone="no"?><!DOCTYPE svg PUBLIC "-//W3C//DTD SVG 1.1//EN" "http://www.w3.org/Graphics/SVG/1.1/DTD/svg11.dtd"><svg t="1610267482297" class="icon" viewBox="0 0 1024 1024" version="1.1" xmlns="http://www.w3.org/2000/svg" p-id="3689" width="20" height="20" xmlns:xlink="http://www.w3.org/1999/xlink"><defs><style type="text/css"></style></defs><path d="M854.265 612.912l27.2-39.4 27 39.4h24.8l-40.2-55 35.8-48.4h-24.8l-22.6 32.8-22.8-32.8h-24.8l35.8 48.4-40.4 55zM336.559 733.284c11.76 0 20.86-5.04 27.3-14.84 5.88-9.24 8.82-21.7 8.82-37.1 0-15.54-2.94-27.86-8.82-37.1-6.44-9.94-15.54-14.84-27.3-14.84-11.76 0-20.86 4.9-27.3 14.84-5.88 9.1-8.82 21.42-8.82 37.1 0 15.54 2.94 27.86 8.82 37.1 6.44 9.8 15.54 14.84 27.3 14.84z m0-12.88c-8.26 0-14-4.62-17.36-13.58-2.52-6.3-3.64-14.84-3.64-25.48 0-10.78 1.12-19.32 3.64-25.48 3.36-9.1 9.1-13.58 17.36-13.58 8.12 0 14 4.48 17.36 13.58 2.38 6.16 3.64 14.7 3.64 25.48 0 10.64-1.26 19.18-3.64 25.48-3.36 8.96-9.24 13.58-17.36 13.58zM419.57 240.63l56.2-143h-23.2l-27.2 75.4-28.4-75.4h-23l41 101-18 42z" p-id="3690" fill="#499C54"></path><path d="M867.97 683.027L994.003 809.06 867.971 935.09zM88.586 215.118L214.618 89.086l126.031 126.032z" p-id="3691" fill="#499C54"></path><path d="M172.5 976V170h84v806z" p-id="3692" fill="#499C54"></path><path d="M48.5 767h828v84H48.5z" p-id="3693" fill="#499C54"></path></svg>