<?xml version="1.0" standalone="no"?><!DOCTYPE svg PUBLIC "-//W3C//DTD SVG 1.1//EN" "http://www.w3.org/Graphics/SVG/1.1/DTD/svg11.dtd"><svg t="1610267502307" class="icon" viewBox="0 0 1029 1024" version="1.1" xmlns="http://www.w3.org/2000/svg" p-id="4459" width="17" height="17" xmlns:xlink="http://www.w3.org/1999/xlink"><defs><style type="text/css"></style></defs><path d="M710.412 264.033a855.592 855.592 0 0 1-171.118 22.842v200.541H739.06a1009.288 1009.288 0 0 0-28.649-223.383zM539.294 0v241.966a765 765 0 0 0 157.568-21.293C658.147 98.723 599.302 18.583 539.294 0zM330.622 220.286a750.675 750.675 0 0 0 159.891 21.68V0c-60.394 17.034-121.176 97.56-159.89 220.286zM882.305 150.6A514.904 514.904 0 0 0 634.919 10.453a498.256 498.256 0 0 1 106.465 198.606 777.388 777.388 0 0 0 140.92-58.46zM783.97 487.416h245.837a511.032 511.032 0 0 0-116.143-302.36 827.33 827.33 0 0 1-159.504 66.976 1050.713 1050.713 0 0 1 29.81 235.384z m-494.385 0h200.928V286.875a839.719 839.719 0 0 1-172.28-23.229 987.608 987.608 0 0 0-28.648 223.77z m449.476 49.168H539.294v198.993a802.94 802.94 0 0 1 171.118 22.841 1009.288 1009.288 0 0 0 28.649-221.834z m-420.827 223.77a789.777 789.777 0 0 1 172.28-23.229V536.584h-200.93a993.416 993.416 0 0 0 28.65 223.77zM490.514 1024V781.647a803.714 803.714 0 0 0-159.892 21.68C369.337 926.439 430.12 1006.578 490.513 1024z m144.405-10.453a515.29 515.29 0 0 0 247.773-140.534 782.421 782.421 0 0 0-140.921-58.072 503.29 503.29 0 0 1-106.852 198.606zM392.953 10.84a518 518 0 0 0-245.45 139.76 796.746 796.746 0 0 0 139.372 58.071 511.806 511.806 0 0 1 106.078-197.83z m360.82 760.741a828.491 828.491 0 0 1 159.503 67.363 512.968 512.968 0 0 0 116.144-302.36H783.97a1049.939 1049.939 0 0 1-30.198 234.997z m-214.48 10.066v241.579c60.008-16.648 118.854-97.948 157.569-220.286a791.713 791.713 0 0 0-157.568-21.293z m-264.42-529.615a841.654 841.654 0 0 1-158.73-66.976A512.968 512.968 0 0 0 0 487.416h244.289a1072.78 1072.78 0 0 1 30.584-235.384zM244.29 536.584H0a512.968 512.968 0 0 0 116.144 302.36 813.006 813.006 0 0 1 158.73-66.976 1072.78 1072.78 0 0 1-30.585-235.384z m-97.174 336.43a516.452 516.452 0 0 0 245.838 140.146 506.774 506.774 0 0 1-106.078-197.831 798.681 798.681 0 0 0-139.76 57.684z" p-id="4460" fill="#499C54"></path></svg>