<?xml version="1.0" standalone="no"?><!DOCTYPE svg PUBLIC "-//W3C//DTD SVG 1.1//EN" "http://www.w3.org/Graphics/SVG/1.1/DTD/svg11.dtd"><svg t="1610019450975" class="icon" viewBox="0 0 1137 1024" version="1.1" xmlns="http://www.w3.org/2000/svg" p-id="2705" width="17.765625" height="16" xmlns:xlink="http://www.w3.org/1999/xlink"><defs><style type="text/css"></style></defs><path d="M803.157333 186.197333V62.065778C804.181333 32.483556 766.350222 0 736.199111 0h-368.071111c-30.890667 0-66.958222 31.232-66.958222 62.065778v124.131555H100.408889C50.403556 186.197333 0 235.633778 0 279.267556v155.136h1137.777778V279.267556c0-46.250667-50.688-93.070222-100.408889-93.070223h-234.211556z m-100.408889 0H401.578667V124.074667c0-18.773333 13.198222-31.004444 33.450666-31.004445h234.268445c20.195556 0 33.450667 12.231111 33.450666 31.004445v62.122666z m-135.168 433.265778c65.934222 0 68.209778-75.093333 68.209778-122.993778H468.48c1.137778 38.570667 1.308444 124.131556 66.958222 124.131556 0 0 18.375111-1.137778 32.142222-1.137778z m135.168-122.993778S755.768889 682.666667 552.163556 682.666667c-210.318222 0-150.584889-186.197333-150.584889-186.197334H0v434.403556C0 978.545778 45.112889 1024 100.408889 1024h936.96c50.289778 0 100.408889-40.163556 100.408889-93.127111V496.469333h-435.029334z" p-id="2706" fill="#499C54"></path></svg>