<?xml version="1.0" standalone="no"?><!DOCTYPE svg PUBLIC "-//W3C//DTD SVG 1.1//EN" "http://www.w3.org/Graphics/SVG/1.1/DTD/svg11.dtd"><svg t="1608283877441" class="icon" viewBox="0 0 1113 1024" version="1.1" xmlns="http://www.w3.org/2000/svg" p-id="7344" width="17.390625" height="16" xmlns:xlink="http://www.w3.org/1999/xlink"><defs><style type="text/css"></style></defs><path d="M1041.964912 1024H71.859649c-39.684491 0-71.859649-32.193123-71.859649-71.877614v-880.280702A71.859649 71.859649 0 0 1 71.859649 0h970.105263a71.859649 71.859649 0 0 1 71.859649 71.841684v880.280702A71.877614 71.877614 0 0 1 1041.964912 1024z m0-790.45614H71.859649v646.736842a71.859649 71.859649 0 0 0 71.859649 71.859649h826.385965a71.859649 71.859649 0 0 0 71.859649-71.859649V233.54386zM682.666667 808.403088H449.122807A71.859649 71.859649 0 0 1 449.122807 664.701754h233.54386a71.859649 71.859649 0 1 1 0 143.701334z" p-id="7345" fill="#499C54"></path></svg>