<?xml version="1.0" standalone="no"?><!DOCTYPE svg PUBLIC "-//W3C//DTD SVG 1.1//EN" "http://www.w3.org/Graphics/SVG/1.1/DTD/svg11.dtd"><svg t="1616751515206" class="icon" viewBox="0 0 1024 1024" version="1.1" xmlns="http://www.w3.org/2000/svg" p-id="13503" width="16" height="16" xmlns:xlink="http://www.w3.org/1999/xlink"><defs><style type="text/css"></style></defs><path d="M891.13031112 890.09948444H163.53848889a29.72672 29.72672 0 0 1-29.72672-29.72672V132.88106666a29.72103111 29.72103111 0 0 1 50.74488889-21.01816888l725.97617778 725.98186666a29.72672 29.72672 0 0 1-19.4048 52.25358222z m-697.86851556-59.44888889h625.99395556l-625.99395556-626.00533333v626.00533333z" fill="#499C54" p-id="13504"></path><path d="M470.60992 727.04a0.39025778 0.39025778 0 0 1-0.11719111 0H326.58773334a29.72672 29.72672 0 0 1-29.72672-29.72672v-143.89475556a29.72103111 29.72103111 0 0 1 50.74488888-21.01703111l142.38492445 142.37923555a29.65048889 29.65048889 0 0 1 10.32874667 22.52686223 29.71534222 29.71534222 0 0 1-29.70965334 29.73240889zM356.31445334 667.59111111h42.39815111l-42.39815111-42.40270223v42.40384z m302.20515555 73.96693333a24.7808 24.7808 0 0 1-17.52177777-42.28778666l44.90808888-44.9024a24.7808 24.7808 0 0 1 35.03331556 0 24.7808 24.7808 0 0 1 0 35.03445333l-44.90808889 44.9024a24.68864 24.68864 0 0 1-17.5104 7.25219555zM588.74311112 634.45560888a24.77511111 24.77511111 0 0 1-17.5104-42.27982222l26.22577777-26.24398222a24.76942222 24.76942222 0 1 1 35.03445333 35.02193778l-26.22577777 26.24398222a24.67612445 24.67612445 0 0 1-17.52405333 7.25902222zM765.62204445 811.33454222a24.75804445 24.75804445 0 0 1-17.5104-42.28664889l26.24853333-26.24398222a24.76373333 24.76373333 0 0 1 35.02193778 35.03445333l-26.24853334 26.24284444a24.68864 24.68864 0 0 1-17.51153777 7.25333334zM481.66001778 564.66773333a24.70570667 24.70570667 0 0 1-17.5104-7.25219555 24.74666667 24.74666667 0 0 1 0-35.02193778l44.87395556-44.87964445a24.76942222 24.76942222 0 1 1 35.03217778 35.02876445l-44.88419556 44.87395555a24.70570667 24.70570667 0 0 1-17.5104 7.25105778z m-69.81745778-107.07626667a24.7808 24.7808 0 0 1-17.51722666-42.28664888l26.24398222-26.24398223a24.81607111 24.81607111 0 0 1 35.05720889 0 24.75804445 24.75804445 0 0 1 0 35.03445333l-26.26673778 26.24284445a24.71139555 24.71139555 0 0 1-17.51722667 7.25333333z m-107.09447111-69.78901333a24.75804445 24.75804445 0 0 1-17.5104-42.27982222l44.89671111-44.89671111a24.75804445 24.75804445 0 0 1 35.02762667 0 24.75804445 24.75804445 0 0 1 0 35.02762666l-44.89671111 44.89671112a24.68864 24.68864 0 0 1-17.51722667 7.25219555z m-69.78787555-107.09447111a24.76942222 24.76942222 0 0 1-17.51722667-42.28664889l26.24284445-26.23715555a24.76942222 24.76942222 0 1 1 35.02876444 35.02762666l-26.24398222 26.23715556a24.65905778 24.65905778 0 0 1-17.5104 7.25902222z" fill="#499C54" p-id="13505"></path></svg>