<?xml version="1.0" standalone="no"?><!DOCTYPE svg PUBLIC "-//W3C//DTD SVG 1.1//EN" "http://www.w3.org/Graphics/SVG/1.1/DTD/svg11.dtd"><svg t="1608026950818" class="icon" viewBox="0 0 1024 1024" version="1.1" xmlns="http://www.w3.org/2000/svg" p-id="2677" width="16" height="16" xmlns:xlink="http://www.w3.org/1999/xlink"><defs><style type="text/css"></style></defs><path d="M761.166 198.024c-24.146-26.846-93.885-38.577-121.065-14.868-22.185-23.1-44.787-40.171-78.266-44.383-19.045-2.396-38.33 0.68-55.486 9.365-2.907 1.471-17.706 14.13-20.02 14.63-7.323 1.575-35.366-17.03-45.038-19.303-18.747-4.404-38.261-4.284-57.126-0.664-22.444 4.489-35.542 11.793-49.534 27.651-14.371 16.285-24.897 33.74-32.543 54.93-6.959 19.282-8.76 35.202-23.971 50.252-5.633 5.573-11.318 10.949-15.274 17.634-15.82 26.73-31.202 52.238-45.833 79.557-23.55 43.97-66.008 88.856-60.773 142.853 4.213 43.473 31.073 62.124 60.987 86.535 9.394 7.666 20.654 15.784 28.885 25.91 10.505 20.497 24.078 48.19 41.31 63.507 11.66 10.363 22.235 23.618 32.549 34.668 25.401 27.218 55.214 48.969 76.517 79.389 11.265 16.088 21.214 34.711 28.01 53.523 2.365 6.544 11.934 54.798 13.449 54.798H854.197c-12.022-43.547-15.391-90.485-3.609-133.598 1.757-4.992 12.145-16.76 14.124-23.363 1.6-5.337 6.823-11.171 9.466-17.014 19.23-42.5 29.941-85.859 37.9-131.671 8.803-50.666 17.414-101.963 19.245-153.43 1.5-42.181 10.622-94.618-1.778-135.552-12.06-39.814-45.738-76.837-88.658-81.886-12.63-1.486-35.894 2.925-46.584-3.575-10.955-6.66-22.852-26.215-33.137-35.895" p-id="2678" fill="#595959"></path></svg>