<?xml version="1.0" standalone="no"?><!DOCTYPE svg PUBLIC "-//W3C//DTD SVG 1.1//EN" "http://www.w3.org/Graphics/SVG/1.1/DTD/svg11.dtd"><svg t="1614591030482" class="icon" viewBox="0 0 1024 1024" version="1.1" xmlns="http://www.w3.org/2000/svg" p-id="2123" width="16" height="16" xmlns:xlink="http://www.w3.org/1999/xlink"><defs><style type="text/css"></style></defs><path d="M1016.7 486.3c-56.9-92.1-258.4-331-504.6-331S64.4 394.2 7.5 486.3c-9.8 15.9-9.8 35.7 0 51.6 56.8 92 258.3 330.9 504.6 330.9s447.7-238.9 504.6-331c9.7-15.8 9.7-35.6 0-51.5zM512.1 803.4c-231.8 0-409.7-242.4-443.2-291.3 33.5-49 211.5-291.3 443.2-291.3s409.7 242.4 443.2 291.3c-33.6 49-211.5 291.3-443.2 291.3z" p-id="2124" fill="#499C54"></path><path d="M512.1 288.2c-123.4 0-223.8 100.4-223.8 223.8s100.4 223.8 223.8 223.8S735.9 635.4 735.9 512 635.5 288.2 512.1 288.2z m0 382.3c-87.3 0-158.4-71-158.4-158.4s71.1-158.4 158.4-158.4c87.3 0 158.4 71.1 158.4 158.4s-71.1 158.4-158.4 158.4z" p-id="2125" fill="#499C54"></path></svg>